# xmcd
#
# Track frame offsets:
#	150
#	21510
#	45099
#	75765
#	93725
#	121664
#	146779
#	174863
#	204044
#	232273
#	261469
#	282919
#	300637
#	319908
#
# Disc length: 4574 seconds
#
# Revision: 5
# Processed by: cddbd v1.5.2PL0 Copyright (c) Steve Scherf et al.
# Submitted via: dBpowerAMP V4.0
#
DISCID=b711dc0e
DTITLE=varios - Ibiza Beach House 
DYEAR=2007
DGENRE=
TTITLE0=Aircraft 72 - Hear What I M Saying 
TTITLE1=Calido - El Calor
TTITLE2=Noise Boyz - Hand In Hand
TTITLE3=Sunseeker - Anymore
TTITLE4=Phil Kinley - Miami Beach (
TTITLE5=Aircraft 72 - Kiss The Sky 
TTITLE6=Orange Music - Put Em Up
TTITLE7=Fairwind Feat Nina - The End Of Time 
TTITLE8=Clublife - Funny Beach 
TTITLE9=Noise Boyz - Where Do You
TTITLE10=Aircraft 72 - Sunny Day 
TTITLE11=Phil Kinley - I Ve Got That Phunky Fever
TTITLE12=Sonic Tool - Funky Bass
TTITLE13=Skyway - Jamo
EXTD=
EXTT0=
EXTT1=
EXTT2=
EXTT3=
EXTT4=
EXTT5=
EXTT6=
EXTT7=
EXTT8=
EXTT9=
EXTT10=
EXTT11=
EXTT12=
EXTT13=
PLAYORDER=
